<?xml version="1.0" standalone="no"?>
<!DOCTYPE svg PUBLIC "-//W3C//DTD SVG 20010904//EN"
 "http://www.w3.org/TR/2001/REC-SVG-20010904/DTD/svg10.dtd">
<svg version="1.0" xmlns="http://www.w3.org/2000/svg"
 width="576.000000pt" height="576.000000pt" viewBox="0 0 576.000000 576.000000"
 preserveAspectRatio="xMidYMid meet">
<metadata>
Created by potrace 1.11, written by Peter Selinger 2001-2013
</metadata>
<g transform="translate(0.000000,576.000000) scale(0.100000,-0.100000)"
fill="#000000" stroke="none">
<path d="M1490 5584 c-47 -8 -98 -16 -115 -18 -83 -14 -273 -74 -343 -109 -26
-13 -51 -25 -57 -26 -28 -8 -233 -125 -245 -141 -3 -3 -21 -17 -40 -30 -88
-62 -208 -177 -297 -285 -90 -110 -80 -97 -129 -175 -131 -209 -215 -441 -251
-691 -10 -70 -10 -367 0 -439 16 -118 20 -138 48 -235 16 -55 31 -107 33 -117
3 -9 12 -30 20 -47 9 -17 14 -31 11 -31 -12 0 119 -244 174 -325 205 -299 530
-544 876 -657 55 -18 101 -39 102 -45 2 -7 -2 -13 -7 -13 -6 0 -10 -7 -10 -15
0 -21 -86 -197 -140 -285 -25 -41 -50 -84 -57 -95 -7 -11 -15 -27 -19 -35 -4
-8 -10 -17 -14 -20 -4 -3 -26 -34 -50 -70 -24 -36 -46 -67 -50 -70 -3 -3 -19
-23 -35 -45 -16 -22 -36 -47 -45 -56 -8 -9 -31 -36 -50 -60 -109 -135 -299
-323 -515 -509 -60 -52 -113 -99 -117 -105 -6 -9 7 -36 34 -70 42 -54 155
-192 163 -201 5 -6 21 -25 35 -43 14 -18 32 -40 41 -49 8 -10 37 -44 65 -77
27 -33 54 -65 60 -71 5 -6 26 -31 45 -54 18 -23 40 -49 47 -56 12 -12 42 0
205 84 210 108 259 134 267 142 7 7 36 24 113 67 37 20 67 41 67 45 0 4 5 8
10 8 12 0 153 92 158 103 2 4 8 7 13 7 16 0 332 234 429 318 8 7 26 21 39 32
109 90 341 314 456 440 108 119 269 324 350 445 22 33 42 62 45 65 6 6 4 3
104 171 42 69 96 169 122 222 l46 96 27 -15 c14 -8 42 -24 61 -36 57 -34 199
-104 230 -113 3 -1 21 -8 40 -16 19 -8 63 -23 98 -34 34 -10 62 -22 62 -26 0
-9 -27 -72 -76 -174 -65 -139 -283 -470 -371 -563 -18 -19 -33 -37 -33 -39 0
-13 -332 -351 -416 -423 -22 -19 -67 -58 -100 -86 -32 -28 -72 -63 -89 -77
-27 -23 -29 -27 -16 -50 12 -22 65 -93 103 -137 7 -8 31 -38 53 -65 22 -28 42
-52 45 -55 3 -3 39 -45 80 -95 41 -49 83 -99 93 -110 10 -11 42 -48 70 -83 28
-34 53 -61 56 -59 3 1 29 13 56 25 28 12 57 26 65 31 8 6 68 37 132 70 64 34
140 74 168 91 28 16 53 30 56 30 3 0 10 5 17 10 7 6 50 33 97 61 99 60 282
181 360 238 30 23 66 49 79 59 211 150 526 434 711 642 90 100 108 121 147
172 21 27 41 48 45 48 4 0 8 7 8 15 0 8 4 15 8 15 4 0 15 12 24 28 10 15 31
43 47 62 17 19 31 40 31 47 0 6 4 13 9 15 11 4 81 107 81 119 0 5 5 9 10 9 6
0 10 5 10 10 0 6 5 16 10 23 21 24 90 138 90 147 0 6 4 10 9 10 7 0 22 36 20
49 0 2 3 7 8 10 36 27 222 435 288 636 58 177 120 416 131 510 1 14 15 105 20
135 24 143 24 580 0 650 -3 8 -7 29 -9 45 -9 60 -62 244 -86 300 -115 261
-210 405 -386 580 -179 179 -307 264 -580 386 -87 39 -255 82 -405 103 -93 14
-389 15 -455 2 -16 -3 -43 -8 -60 -11 -213 -36 -470 -136 -632 -246 -23 -16
-44 -29 -47 -29 -3 0 -15 -8 -27 -17 -42 -36 -58 -48 -85 -68 -15 -11 -37 -30
-48 -42 -25 -29 -40 -29 -74 1 -89 80 -168 135 -277 197 -115 64 -200 103
-300 137 -66 23 -220 63 -232 61 -4 -1 -10 0 -13 1 -6 2 -20 5 -70 15 -70 13
-373 13 -460 -1z"/>
</g>
</svg>
