<svg xmlns="http://www.w3.org/2000/svg" xmlns:xlink="http://www.w3.org/1999/xlink" version="1.1" x="0px" y="0px" viewBox="0 0 100 100" style="enable-background:new 0 0 100 100;" xml:space="preserve"><path d="M79,24.3H21c-0.6,0-1,0.4-1,1v49.4c0,0.6,0.4,1,1,1h58c0.6,0,1-0.4,1-1V25.3C80,24.7,79.6,24.3,79,24.3z M78,73.7H22V26.3  h56V73.7z M27.2,32.8c0-0.6,0.4-1,1-1h43.7c0.6,0,1,0.4,1,1s-0.4,1-1,1H28.2C27.6,33.8,27.2,33.4,27.2,32.8z M27.7,67.7h8.9h8.9h8.9  h8.9h8.9c0.6,0,1-0.4,1-1v-8.9v-8.9v-8.9c0-0.6-0.4-1-1-1h-8.9h-8.9h-8.9h-8.9h-8.9c-0.6,0-1,0.4-1,1v8.9v8.9v8.9  C26.7,67.2,27.1,67.7,27.7,67.7z M64.4,40.9h6.9v6.9h-6.9V40.9z M64.4,49.8h6.9v6.9h-6.9V49.8z M64.4,58.7h6.9v6.9h-6.9V58.7z   M55.5,40.9h6.9v6.9h-6.9V40.9z M55.5,49.8h6.9v6.9h-6.9V49.8z M55.5,58.7h6.9v6.9h-6.9V58.7z M46.5,40.9h6.9v6.9h-6.9V40.9z   M46.5,49.8h6.9v6.9h-6.9V49.8z M46.5,58.7h6.9v6.9h-6.9V58.7z M37.6,40.9h6.9v6.9h-6.9V40.9z M37.6,49.8h6.9v6.9h-6.9V49.8z   M37.6,58.7h6.9v6.9h-6.9V58.7z M28.7,40.9h6.9v6.9h-6.9V40.9z M28.7,49.8h6.9v6.9h-6.9V49.8z M28.7,58.7h6.9v6.9h-6.9V58.7z"/></svg>
