<svg xmlns="http://www.w3.org/2000/svg" xmlns:xlink="http://www.w3.org/1999/xlink" version="1.1" x="0px" y="0px" viewBox="0 0 100 100" style="enable-background:new 0 0 100 100;" xml:space="preserve"><path d="M72.8,20H27.2c-0.7,0-1.2,0.5-1.2,1.2v57.6c0,0.7,0.5,1.2,1.2,1.2h45.6c0.7,0,1.2-0.5,1.2-1.2V21.2C74,20.5,73.5,20,72.8,20  z M71.6,77.6H28.4V22.4h43.2V77.6z M36.7,35.6c2,0,3.6-1.6,3.6-3.6s-1.6-3.6-3.6-3.6S33.1,30,33.1,32S34.7,35.6,36.7,35.6z   M36.7,30.8c0.7,0,1.2,0.5,1.2,1.2c0,0.7-0.5,1.2-1.2,1.2s-1.2-0.5-1.2-1.2C35.5,31.3,36,30.8,36.7,30.8z M36.7,47.6  c2,0,3.6-1.6,3.6-3.6s-1.6-3.6-3.6-3.6S33.1,42,33.1,44S34.7,47.6,36.7,47.6z M36.7,42.8c0.7,0,1.2,0.5,1.2,1.2s-0.5,1.2-1.2,1.2  s-1.2-0.5-1.2-1.2S36,42.8,36.7,42.8z M36.7,59.6c2,0,3.6-1.6,3.6-3.6s-1.6-3.6-3.6-3.6S33.1,54,33.1,56S34.7,59.6,36.7,59.6z   M36.7,54.8c0.7,0,1.2,0.5,1.2,1.2s-0.5,1.2-1.2,1.2s-1.2-0.5-1.2-1.2S36,54.8,36.7,54.8z M36.7,71.6c2,0,3.6-1.6,3.6-3.6  s-1.6-3.6-3.6-3.6S33.1,66,33.1,68S34.7,71.6,36.7,71.6z M36.7,66.8c0.7,0,1.2,0.5,1.2,1.2s-0.5,1.2-1.2,1.2s-1.2-0.5-1.2-1.2  S36,66.8,36.7,66.8z M44.1,32c0-0.7,0.5-1.2,1.2-1.2h20.4c0.7,0,1.2,0.5,1.2,1.2s-0.5,1.2-1.2,1.2H45.3C44.6,33.2,44.1,32.7,44.1,32  z M44.1,44c0-0.7,0.5-1.2,1.2-1.2h20.4c0.7,0,1.2,0.5,1.2,1.2s-0.5,1.2-1.2,1.2H45.3C44.6,45.2,44.1,44.7,44.1,44z M44.1,56  c0-0.7,0.5-1.2,1.2-1.2h20.4c0.7,0,1.2,0.5,1.2,1.2s-0.5,1.2-1.2,1.2H45.3C44.6,57.2,44.1,56.7,44.1,56z M44.1,68  c0-0.7,0.5-1.2,1.2-1.2h20.4c0.7,0,1.2,0.5,1.2,1.2s-0.5,1.2-1.2,1.2H45.3C44.6,69.2,44.1,68.7,44.1,68z"/></svg>
