<svg xmlns="http://www.w3.org/2000/svg" xmlns:xlink="http://www.w3.org/1999/xlink" version="1.1" x="0px" y="0px" viewBox="0 0 100 100" style="enable-background:new 0 0 100 100;" xml:space="preserve"><path d="M61.9,47.7c0.3,0.3,0.7,0.4,1.1,0.4s0.8-0.1,1.1-0.4l6.8-6.8c0.3-0.3,0.4-0.7,0.4-1.1s-0.2-0.8-0.4-1.1L52.6,20.4  c-0.6-0.6-1.5-0.6-2.1,0l-6.8,6.8c-0.3,0.3-0.4,0.7-0.4,1.1s0.2,0.8,0.4,1.1L61.9,47.7z M51.5,23.6l16.1,16.1L63,44.5L46.8,28.3  L51.5,23.6z M34.2,45.6l-2.1-2.1l11.4-11.4l2.1,2.1L34.2,45.6z M29.4,43.6c-0.6-0.6-1.6-0.6-2.1,0l-6.8,6.8c-0.6,0.6-0.6,1.5,0,2.1  l18.3,18.3c0.3,0.3,0.7,0.4,1.1,0.4s0.8-0.2,1.1-0.4l6.8-6.8c0.6-0.6,0.6-1.5,0-2.1L29.4,43.6z M39.8,67.7L23.6,51.5l4.7-4.7  L44.5,63L39.8,67.7z M78.3,70.4L57.5,49.5l1.7-1.7l-2.1-2.1L45.7,57.1l2.1,2.1l1.7-1.7l20.8,20.8c1.1,1.1,2.5,1.6,4,1.6  c1.4,0,2.9-0.5,4-1.6C80.5,76.1,80.5,72.6,78.3,70.4z M76.2,76.2c-1,1-2.7,1-3.7,0L51.6,55.4l3.7-3.7l20.8,20.8  C77.3,73.5,77.3,75.2,76.2,76.2z"/></svg>
