<svg xmlns="http://www.w3.org/2000/svg" viewBox="0 0 36 33.75"><title>pl-logo-v2</title><g id="Layer_2" data-name="Layer 2"><g id="Layer_1-2" data-name="Layer 1"><polygon points="22 11 21 5 18 2.86 15 5 14 11 15 17 19.31 19.63 21 18 22 11"/><path d="M14.55,10.73A10.69,10.69,0,0,1,18,2.86,10.72,10.72,0,1,0,8,21.09c-2,5.14-7,8.55-7,8.74s3.19,3.92,3.19,3.92c8.67-4.13,13-9.65,15.09-14.12A10.69,10.69,0,0,1,14.55,10.73Z" fill="#164f91"/><path d="M36,10.73A10.71,10.71,0,0,0,18,2.86a10.69,10.69,0,0,1,3.45,7.87,10.84,10.84,0,0,1-.06,1.11h0a19.84,19.84,0,0,1-2.09,7.79,10.7,10.7,0,0,0,3.23,1.46c-2,5.14-7,8.55-7,8.74s3.19,3.92,3.19,3.92C36,25.54,35.94,11.84,35.94,11.84h0A10.84,10.84,0,0,0,36,10.73Z" fill="#c70000"/></g></g></svg>