<svg xmlns="http://www.w3.org/2000/svg" viewBox="0 0 36 33.75"><title>pl-logo</title><g id="Layer_2" data-name="Layer 2"><g id="Layer_1-2" data-name="Layer 1"><polygon points="22 11 21 5 18 2.86 15 5 14 11 15 17 19.31 19.63 21 18 22 11"/><path d="M39.55-356.27A10.67,10.67,0,0,1,43-364.14,10.66,10.66,0,0,0,35.73-367,10.72,10.72,0,0,0,25-356.27a10.72,10.72,0,0,0,8,10.36c-2,5.13-7,8.54-7,8.74s3.18,3.92,3.18,3.92c8.67-4.13,13-9.65,15.09-14.12A10.69,10.69,0,0,1,39.55-356.27Z" transform="translate(-25 367)" fill="#3f76a3"/><path d="M61-356.27A10.72,10.72,0,0,0,50.27-367,10.66,10.66,0,0,0,43-364.14a10.67,10.67,0,0,1,3.45,7.87c0,.37,0,.74-.05,1.11h0a19.85,19.85,0,0,1-2.09,7.79,10.75,10.75,0,0,0,3.23,1.46c-2,5.13-7,8.54-7,8.74s3.19,3.92,3.19,3.92c17.23-8.21,17.17-21.91,17.17-21.91h0A10.32,10.32,0,0,0,61-356.27Z" transform="translate(-25 367)" fill="#c70000"/></g></g></svg>