<svg xmlns="http://www.w3.org/2000/svg" xmlns:xlink="http://www.w3.org/1999/xlink" version="1.1" x="0px" y="0px" viewBox="0 0 100 100" style="enable-background:new 0 0 100 100;" xml:space="preserve"><path d="M70.3,20H33.1c-1.2,0-2.3,0.5-3.1,1.3c-0.8,0.8-1.2,1.8-1.3,2.9c-1.2,0.5-2,1.6-2,3v49.7c0,1.8,1.4,3.2,3.2,3.2h36.5  c1.8,0,3.2-1.4,3.2-3.2V76h0.9c1.7,0,3.1-1.4,3.1-3.1V23.1C73.4,21.4,72,20,70.3,20z M67.5,76.8c0,0.6-0.5,1.2-1.2,1.2H29.8  c-0.6,0-1.2-0.5-1.2-1.2V27.1c0-0.6,0.5-1.2,1.2-1.2h24V46c0,0.4,0.2,0.7,0.6,0.9s0.8,0.1,1.1-0.1l4-3.4l4,3.4  C63.5,47,63.7,47,64,47c0.1,0,0.3,0,0.4-0.1c0.4-0.2,0.6-0.5,0.6-0.9V26h2.5V76.8z M55.7,43.9V26H63v17.9l-3-2.5  c-0.2-0.2-0.4-0.2-0.7-0.2s-0.5,0.1-0.7,0.2L55.7,43.9z M71.4,72.9c0,0.6-0.5,1.1-1.1,1.1h-0.9V25c0-0.6-0.4-1-1-1H64h-9.2H30.7  c0.1-0.5,0.3-0.9,0.7-1.2c0.5-0.5,1.1-0.7,1.7-0.7h37.2c0.6,0,1.1,0.5,1.1,1.1V72.9z"/></svg>
