<svg xmlns="http://www.w3.org/2000/svg" xmlns:xlink="http://www.w3.org/1999/xlink" version="1.1" x="0px" y="0px" viewBox="0 0 100 100" style="enable-background:new 0 0 100 100;" xml:space="preserve"><path d="M67.3,41.2c4.3,0,7.7-3.5,7.7-7.7s-3.5-7.7-7.7-7.7s-7.7,3.5-7.7,7.7S63,41.2,67.3,41.2z M67.3,28.7c2.6,0,4.7,2.1,4.7,4.7  s-2.1,4.7-4.7,4.7s-4.7-2.1-4.7-4.7S64.7,28.7,67.3,28.7z M80,45.3v13.2c0,0.8-0.7,1.5-1.5,1.5S77,59.3,77,58.5V46.8h-2.9v26  c0,0.8-0.7,1.5-1.5,1.5s-1.5-0.7-1.5-1.5v-26h-7.5v26c0,0.8-0.7,1.5-1.5,1.5s-1.5-0.7-1.5-1.5v-26H45.8c-0.3,0-0.7-0.1-1-0.3  L37.1,40c-0.6-0.5-0.7-1.5-0.2-2.1c0.5-0.6,1.5-0.7,2.1-0.2l7.3,6.1h32.1C79.3,43.8,80,44.5,80,45.3z M54.2,48.8h3v9.7  c0,0.8-0.7,1.5-1.5,1.5H21.5c-0.8,0-1.5-0.7-1.5-1.5V32.1c0-0.8,0.7-1.5,1.5-1.5h34.2c0.8,0,1.5,0.7,1.5,1.5v9.7h-3v-8.2H23V57h31.2  V48.8z"/></svg>
